/* XPM */
static char *Dark_Wood[] = {
/* columns rows colors chars-per-pixel */
"80 80 63 1",
"  c #644b2f",
". c #654c2e",
"X c #664d2d",
"o c #664c2f",
"O c #674d2e",
"+ c #674e2c",
"@ c #674e2d",
"# c #684f2b",
"$ c #684d2f",
"% c #684e2d",
"& c #694f2c",
"* c #684e2e",
"= c #694e2e",
"- c #6a4f2d",
"; c #6b4f2e",
": c #69502a",
"> c #69502b",
", c #6a5129",
"< c #6a502b",
"1 c #6b502b",
"2 c #6b512a",
"3 c #6b512b",
"4 c #6b5229",
"5 c #6b502c",
"6 c #6b502d",
"7 c #6c5229",
"8 c #6d5229",
"9 c #6d5329",
"0 c #6c522a",
"q c #6d522b",
"w c #6e5329",
"e c #6f5329",
"r c #6e522a",
"t c #6f522b",
"y c #6f532a",
"u c #6c502d",
"i c #6c512c",
"p c #6d512d",
"a c #6e522c",
"s c #6f522d",
"d c #70532a",
"f c #70532b",
"g c #71532b",
"h c #70522c",
"j c #705429",
"k c #715429",
"l c #71542a",
"z c #725529",
"x c #735529",
"c c #72542a",
"v c #73542b",
"b c #73552a",
"n c #735629",
"m c #745629",
"M c #755729",
"N c #74562a",
"B c #75562a",
"V c #765729",
"C c #77572a",
"Z c #775829",
"A c #785829",
"S c #795929",
"D c #7b5a29",
/* pixels */
"@@##0ZZSDZMMMMDDDDDDDDDMMkk777wkMMZ0  @ #00kfADDAff%%;;;xf0ffxxfZnZnZnZnDDxxvvvD",
"@@##0MZSSZMMMMDDDDDDDDDMMkw777wkMMZ0  : #w0ffSDDAff%%;;;ff0f0ZzfnZnZnZnZDDNxvvvD",
"@@##0MMSSxxxMMDDDDDDDDDAMzzw8,wwMMM0    +#;xfADDShf%%%8;fh000wwkZnZZZnZnMSNNxZZD",
"@@##wMMSSxxxMMDDDDDDDDDASzzw,,kkMMM0 :  +wwxxADDZf0%#%#;00000kwwnZZZZZnZSMxhfxZD",
"1171zzzMnjnnMSDDDDDDDDDASMZ;wwkkZZZp: : #wkxZDDDZ;h++O;w777:#wwwnnZZZnZzxxjzzZSS",
"1111zzzznjjxSMDDDDDDDDDAAMZ08888xxx0#%:#,w8xfDDDMkf##O##7:7:7wwknZZZSZnz11jjzSSD",
"1110zzzzxjxxSMDDDDDDDDDAAMM0,;wwxxx0;% ##kwMMDDDMfk#;O;,#77:,w,kZnZSSZZz91jjzZZS",
"0000zwjjj9xxMMSDDDDDDDDMZ0f#w8wkxxZ0000#8kkxMDDDM0f++;;;77777kkzZZZSZZZzjj14xZZS",
"008wkwwkjjxxnnSDDDDDDDSMMff#8wkwxxj9aa1>jjjxZSSDMff%%;;;w7777wwzSZZSSSZzww0wxxxD",
"##,,0wwkj9jxnnSDDDDDSAMkf0w#wwww1jj1>j19jxxMZSDDMffp0;00777wwzzSDDSDSSSzkM#0hxxD",
"w088wkwkjjjjxxMDDDDDSSMkk,,8kwwk4111aa>jfpxNZSDDM00%%;p0wwwkzMzSDDDDDSSzkMw#;xeM",
"00wwwwwzjjjjxMMDDDDDSSMkk,8#kwkfj99:>japfNNNZDDDM00%%;00wwwwjzzZDDDDDSSZkk;;hhhM",
"00;00f0fjxjjnnMDDDDDAAMww88;ff00j44119>>0xzMMSDDMfk;;00pff0xzzZZSSSDSZZzkw11kk;M",
"00;000fxjxjjnnMDDDDDDAMkw8w8fx0fj41111>>1xzZMDDDMfk;;hp0ff0xzzzZSSSDDZZzkk11;hkM",
"hh00jjjxxx99xnMDDDDDDDAMkkk#00:1777:9>>>7wwzMDDDMkkw00;;0p1xzzzZSSDDDZnj7717wffM",
"hf0;jjjxjnjjnMSDDDDDDDAMMMM;001:777::>>>7jjMMDDDMkkw0f;%;%#x0zzzZZDDSZZjjj77kxMD",
"ff00ffkMznjjZnZDDDDDDDDnznZ1j011191:::+:7jzMMDDDMzzw70#;%%;ffffMAMDDDAMzwww7kxMD",
"0f00ffkznnnnZZSDDDDDDDSZZzz70011491::+::7zzZSDDDMkw777##  %00ZkMAADDDSAMww,7wMxD",
"f000wkkznZnZSSDDDDDDDDDZZzz7xk7747::::17jzzSSSDDMzzw17:@%@;p0xxxAADDDDDMkw,,kxMD",
"ff00wkkMnnZnSSDDDDDDDDDnZzzw0f774,1>>>71zzMSSDDDMzk71#::  ;00xxxAADDDDDMww,,wxMS",
"f0w,kkwznZZZSSDDDDDDDDDZzzz7jj4j4:::1114zMMSDDDDSzz777@:++;8fMMMDDDDDDDMzw::70kM",
"kk#wwwwMzZZZSSDDDDDDDDDnZzzwjjj4j:::1#14zMZSDDDDMzz777::++;w0AMMDDDDDDDMwz::wffM",
"fk;kxkkzzzZZSSDDDDDDDDSnzzz7jw7,1@::::77zMZSDDDDSzMww7:# #;w;xxxAADDDDDMzw77wkMM",
"MzkwMxxMZzzzZSSDDDDDDDZzzww777,7j>::::77jZZSDDDDSzz777:@OO;wkkkkMMDDDDDMwzwwkMzM",
"zMwkMzMMMMzzZZSDDDDDDDZzzj47w77791>>>>:1zMMDDDDDZzz7w;%%OO;f0kkkMADDDDDMkwwwkMMM",
"0fwwzMMMAzkzMzZSDDDDDDZzzj477w77j1>9>>99zZMSDDDDZzz11;$%OO;fffkkMADDDDDMkkwkzAMM",
"f0w,zMMAZzwzMzSDDDDDDDZzz4j77744j111::19zSSDDDDDZzx11#%;OO;;0kkkMMDDDDDMwkwwzAAM",
"w,8wMMASSMzzzzZDDDDDDDSznj477j44j19:::99zSSDDDDDMj0::@O ;OxxfMzMSSDDDDDMwkwwkMfZ",
"#,71wMMSSZMMZZSDDDDDDDDZZjj,7744x1p>..jjMDDDDDDDMjj:# ;;p0MkkkzMSSSDDDDMzzw1fZfZ",
",##:zMMSSZMMZZSDDDDDDDSZnjj77744j11p.:j9MDDDDDDDMj0:#O%%f0MkkkzzSSDDDDDMzz1wfffZ",
"7777kMAAZZZZSDDDDDDDSSZnnzzj7774j11>%#jjZSDDDDDDMzz:# OO00zwkwwzZZDDDDDMzzw0ZhZD",
"7777kMMAZZZZDDDDDDDDSSZnnzzj77,4j11>1#jjSDDDDDSSMf0:# O%0pzkkwwzZSDDDDSMMMf0vNND",
"ww,,kMMASMAADDDDDSSSSSMzzzww7777j9pp>>xxSDDDDDZSzjj:# %;p0zkkkwzSZSDDSSzMzfkvhhv",
"00kkMAMASSSSDDDDDSSZzzzwwwzkw7771>p>jpMMDDDDDDZZz71:#@%%0pzzzMMSSSDDSSMzzzf0vhhv",
"fkkwMMAASSSSDDDDDSZZzzzwwwwwww,7j>>p0pMMDDDDDDSZj77:# %%0;ZkzMMMSSDDDSZzzzkfNhhv",
"f088MMMMSMSSDDDDDSZZZZzwwwwwwww,1>a>jxMMDDDDDSZZj71:#%;000fkkzMSSSDDDMMzww0whppN",
"ww#1ffhkkMMADDDDDSSZzzzwwkww00w8>NppxxMMDDDDSZzz477:::p;88k00xfZSSDDSMMwww17xxNS",
";w11ffhkkzAMDDDDDSZZMzzwwwww00w8>pp>ZxMSDDDDSZZMj77::@%088kw0xfZSSDDDMMzww71xxND",
"w7770##,00MMDDDDDDSSAAMkkww700wkphNhSSSSDDDDDZzzj7w1:10fwww##f;kSSDDDMMww7170xxD",
"7w710##w;wMMDDDDDSSSMAMkMww70wwfphhNSSSSDDDSSZMz7771@100wwk#;00xSSDDDMMz7771fxxS",
"jj170#100fMMDDDDDDSSZZZMMzz111ffpfffSSDDDDDDDMzzj393110jwwk0fkfMDDDDDMMzww0,fxfD",
"zzzjMxxxkMAMDDDDDSMMzMMMZzzw0w0f0fpZSSDDDDDDSZMzj3>>11xxkkkkkMMADDDSSMzzwww8kMMD",
"znzzxffZzMMSDDDDDSZMzzMMMzzw0000f;0ZSSDDDDDDSZMzj39>91xxkkkwkMMADDDSSMzzww88wMMD",
"nnzzxZZZSMSMDDDDDZzzjzzzMzzw000;0fhZSSDDDDDSSMzwj>:111xxkMzMkAADDDDMMzzzwwwwkMMD",
"nnjjZZZZMSMSDDDDSAzkjwzzzzzw00p>hfhSSSDDDDSSSZwzj>>>00fxzzzMMASDDDDSMkkkwwwwkMMD",
"nzzzxxZxMSSMDDDDDMkkwwzzzzzwkf%phxvDDDDDDSZZZZzzj>>>#0xxzzkzzAADDDDMMkkwwwwwwMMS",
"xj1jxxxxMMMADDDDDAMMzzzzzww7ww0fhZxDDDDDDZZZfxfzx>>affzzzzkMMSSSDDSMMkwwwwwwkMMD",
"jxjjxxxZMAAADDDDDAzMMMzzkww77wp0hZvDDDDDDSZZZfkwj91a00zzzzkMMSSDDDDMMkkwwwwwkMMD",
"j0j0MMMMASSSDDDDDDSSZZzkw77711p0fMADDDDDSZMxzjjjjajppxxxxxnMMDDDDDDMMkkwkwwwkxMD",
"0j0xzMMSSDDDDDDDDDSSMMw7w77:@ %%fSSDDDDDSxZxz77j1>>j0xxxjxnMDDDDDDSMzw,www8wwxxD",
"0kf0zMMSSDDDDDDDSDSZzMw77,7:@@;%fDSSDDDDSZxxzw4j19>ajxznxnnDMDDDDDSzzww78888wMMD",
"ff0xMMMSSDDDDDDSSSzMzk77771:@%%%kAADDDDDMxx0w777>11a9jj4xjnDDDDDDSAzzw7w88w,kkMD",
"k0kwzMMASDDDDDDSSSzzjz44,74:.X%%fAMDDDDDSxf00147>>>aan4jxnMDDDDDDDAkk8ww8877wzMD",
"xxk0zMMASDDDDDDMZZjjjj447,1:::>pkAADDDDDZfffj4jj>>>>1j19jjMDDDDDDDMkk88w8877wMMS",
"fx0fMMMDDDDDDDDMzzwwzz4jj77:>@>>zSASDDDDzkzw44,7>jp99j19xxDDDDDDDDMkkwwwwk,,wkkM",
"xf00MzkDDDDDDDDMZzwwzzjjj77:@>>pMMSDDDDSMkk7444,>aj19991njMDDDDDDDMMkwwwww,wkkkM",
"zMkwMMMDDDDDDDDMZzjjzzjzk7w#;;h0MASDDDDDMMzwww170000j4j4nnMDDDDDDDMzzww77777jjjZ",
"zzwwzzMDDDDDDDDMnzj4nnjjkww#0;pfMSSDDDDDSzzwww71p000744jnnDDDDDDDSMzzw777777wzjn",
"MzwkMMMDDDDDDDSMZZzznZjjk7w,0#ffADDDDDDDAkw777:10f0xzjjjnMDDDDDDSSzzk777w7w7zjzZ",
"MMkkMMMDDDDDDDMMzzZMZZzjw77#0wxxSDDDDDDDMkk771110fjjj7jjMMDDDDDDZZzww7777777zMnD",
"MMzzMMMDDDDDDDSzzzZMSMzww,,:00MxSDDDDDDDAkk77w0;fffkj1jjMMDDDDDDMSzww7777777zZnD",
"MMzzMMMSDDDDDDMMMzZMMMw77:::0#kxSDDDDDDDMww7,;00ffkw99jjMMDDDDDDMMwwwwwwwwwwnnZD",
"MMzzMMMDDDDDDDSzMzMMMMww7#::w,xkSDDDDDDDMkw,,#000kkwj1jjMMDDDDDDMMzwwwwwwwwwnZnD",
"zzkkMMMDDDDDDDSzzzMzSMzww ::;;xMADDDDDDDMzk7w#00;www99nnMMDDDDDDSMzzzwkw77wwnZZD",
"zwwwzMMSDDDDDDSnnzzznnj441@@1>ZxZSDDDDDDSzz74:11:94447zznZSDDDDDSSZznjjj774jzZZD",
"wzwwzZZDDDDDDDSnnzzznzj41::>>>xxSDDDDDDDZzz71:1:11194jzzZZSDDDDDSSnznjjj77j4nZZD",
"wwwwzSZSDDDDDDSnnjjjjzj74::1>>xxzSSDDDDDZzz711>::199jjznZZDDDDDDDDSZnjj777j4nZZD",
"zwzzZSSDDDDDDDSnn4jjjj474::1p>jxMSSDDDDDMjj71>>1:99jjznnZZDDDDDDDDDZnjj77777znZD",
"jjzzZSSDDDDDDDSnnjj4jj471%>p11xxzSSDDDDDMjj77111:4jjjznnZZSDDDDDDDSZnjj47777znZS",
"7wzzZSDDDDDDSSSnnjjjjjj7j>>hjpnnzSSDDDDDMjw7710p1jjzjnZnZZSDDDDDDDDnZjj47777jzzZ",
"j7zzSDDDDDDDSSSnnzjjjjj711>pjannzSSDDDDDMjj771904jjjznnZZZDDDDDDDDDZZjj47777jzzn",
"zzMZSDDDDDDDSSSnnnzzjz471:>>>>jjMSSDDDDDMjj711j0jjjjjjnnZZDDDDDDDDSZZzz477777j4j",
"jjnnMDDDDDDDSSZzzMzzzz777:@%%%0fkASDDDSSzw1@#;ppj777j7zznZSSDDDDDDDZZnnj77774j77",
"jjnnSDDDDDDDSZZzzzzzzz7#1@@@%%f0MSSDDDSSzw1::;00j77744zzZnDDDDDDDDDZZnnj77774477",
"nnnnMSSDDSSMnZzjzzzwww7::.@.:@00zSSDDDAAk71:@#0%4,7,44jjnZDDDDDDDDDSSZZnjjjjj44,",
"nnnnSSSDDSMSZnnjwzwzwz1::...@:00MSSDDDAMw71:#;;p47,744jjZZDDDDDDDDDSZZZzjjjjj4j7",
"91j0xSSSDSMMxxj7wwzwkw7,;###::00MSDDDDMMw7,::%%%91,777zzZZDDDDDDSSSZZSZZjzjjjjj7",
"99jjxSSSSMjj914jwzwzkwwww,w;::f0MDDDDSMMk7:+@pp0j7,77jnZSZDDDDDDSSZnnZZnjj4j7744",
"19j1nSSSSMxj1444wzzwkkwww,,#,#kwMDDDDDMMw7::@0p047,77jnZSSDDDDDDSSZZZZnnjjj47444",
"::jjMSDSSMjj4jjjzzwzwwwwkww;##wfMDDDDDMMw:: %p%1j::74zZZSDDDDDDDZZZzznnj4j7,7,44"
};
