/* XPM */
static char *magick[] = {
/* columns rows colors chars-per-pixel */
"32 32 209 2",
"   c #00240025003a",
".  c #058607070808",
"X  c #0c8d0b8c0586",
"o  c #09b409d10a7c",
"O  c #171711110e0e",
"+  c #1e1e1c1c0b0b",
"@  c #13d413d414b5",
"#  c #14951a1a1b1b",
"$  c #1d1d15151212",
"%  c #1b7b1c3c1cdd",
"&  c #1e1e1f1f2020",
"*  c #181820202020",
"=  c #232315150f0f",
"-  c #26261e1e1515",
";  c #2c2c18181010",
":  c #3a3a19190f0f",
">  c #34341d1d1313",
",  c #242421210d0d",
"<  c #292927271f1f",
"1  c #2eaf2cad1d9e",
"2  c #353532321b1b",
"3  c #3e3e35351b1b",
"4  c #3b3b38381919",
"5  c #2323234e2424",
"6  c #252529292b2b",
"7  c #282827272020",
"8  c #2a3f2ac02b2b",
"9  c #29292eaf33b4",
"0  c #38382b2b2c2c",
"q  c #3c3c37372a2a",
"w  c #3451348a3552",
"e  c #343437373838",
"r  c #363638383838",
"t  c #3cbd3abb3636",
"y  c #3a013a1d3ae5",
"u  c #3d3d3f3f4141",
"i  c #3f3f44443c3c",
"p  c #3e3e41c241c2",
"a  c #3f3f43434848",
"s  c #4c4c28281919",
"d  c #484830301c1c",
"f  c #565623231d1d",
"g  c #5b5b2b2b1616",
"h  c #52523e3e1818",
"j  c #454531b22929",
"k  c #4a4a39ba22a3",
"l  c #42c33b3b3535",
"z  c #45453d3d3e3e",
"x  c #565636362929",
"c  c #6d6d31311818",
"v  c #707034341b1b",
"b  c #71713e3e2626",
"n  c #797939392424",
"m  c #505043431a1a",
"M  c #5d5d46461f1f",
"N  c #454542422c2c",
"B  c #424242423434",
"V  c #565648483434",
"C  c #50504e4e3e3e",
"Z  c #5c5c4c4c3737",
"A  c #575754543c3c",
"S  c #757542421d1d",
"D  c #64644f4f2e2e",
"F  c #6d6d46463232",
"G  c #63635adb3bbc",
"H  c #6e6e56563737",
"J  c #76764e4e2020",
"K  c #71715f5f3232",
"L  c #777761613535",
"P  c #777761613f3f",
"I  c #4399437c447d",
"U  c #4acb4acb4bcc",
"Y  c #4b4b50505555",
"T  c #545443c44444",
"R  c #5a5a4e4e4e4e",
"E  c #50504f4f5050",
"W  c #5c5c5a5a4444",
"Q  c #532e539c5454",
"!  c #575758585858",
"~  c #5c7a5d225df1",
"^  c #50505a5a6666",
"/  c #5c5c5f5f6060",
"(  c #5f5f62626363",
")  c #5e5e69697575",
"_  c #666659594747",
"`  c #62625a5a4848",
"'  c #60605c5c5b5b",
"]  c #6ced5b5b53d4",
"[  c #787854544545",
"{  c #60605f5f6060",
"}  c #72725e5e7d7d",
"|  c #6a6a67675959",
" . c #7c7c64644343",
".. c #7d7d6f6f4242",
"X. c #767666665e5e",
"o. c #747468685b5b",
"O. c #7b7b70705656",
"+. c #649f6502662b",
"@. c #686867676969",
"#. c #6bfe6c356c5a",
"$. c #67676d6d7474",
"%. c #646470707f7f",
"&. c #6e6e71717272",
"*. c #7c7c7a7a6262",
"=. c #72ab73017373",
"-. c #77777a7a7d7d",
";. c #7aba7ada7bdb",
":. c #32323636a0a0",
">. c #38383d3da7a7",
",. c #3b3b3a3ad1d1",
"<. c #3b3b4141d5d5",
"1. c #4e4e52529191",
"2. c #7cfd80808383",
"3. c #787881818a8a",
"4. c #727282829494",
"5. c #88883b3b2121",
"6. c #818140401d1d",
"7. c #919141411f1f",
"8. c #989850502a2a",
"9. c #8d0d74f53f3f",
"0. c #b3b35f5f3838",
"q. c #a3a364643939",
"w. c #a9a96a6a3f3f",
"e. c #bbbb63633333",
"r. c #b3b372723f3f",
"t. c #84da6ac04141",
"y. c #8d8d6f6f4646",
"u. c #808076764545",
"i. c #8a8a7c7c5959",
"p. c #969665654949",
"a. c #95956f6f4343",
"s. c #9c1c61e242c3",
"d. c #939377774e4e",
"f. c #979778784f4f",
"g. c #979779795050",
"h. c #9a9a76767777",
"j. c #a0a07f7f4c4c",
"k. c #aeae7e7e4b4b",
"l. c #b4b473734646",
"z. c #b7b77a7a5151",
"x. c #c6c676764141",
"c. c #80807f7f8080",
"v. c #848481817a7a",
"b. c #a6a681815a5a",
"n. c #b8b883834f4f",
"m. c #b3b38b8b5454",
"M. c #b1b18e8e5d5d",
"N. c #bdbd8a8a5757",
"B. c #bfbf97975d5d",
"V. c #aeae93936f6f",
"C. c #bebe8d8d6969",
"Z. c #b3b393936565",
"A. c #b8b898986e6e",
"S. c #aeaea0a05e5e",
"D. c #ababa2a27b7b",
"F. c #d5d598985959",
"G. c #c8c88b8b6464",
"H. c #c9c990906969",
"J. c #d1d19d9d6d6d",
"K. c #c7c7a7a76464",
"L. c #cfcfabab6a6a",
"P. c #c2c2a2a27676",
"I. c #d3d3a7276565",
"U. c #d5d5ac016711",
"Y. c #df0daeae6ab0",
"T. c #d3d3a6a67979",
"R. c #ddddb2b27676",
"E. c #8350831c8437",
"W. c #888886868686",
"Q. c #888887878888",
"!. c #8e8e8c8c8585",
"~. c #8b528be18c36",
"^. c #868686869d9d",
"/. c #88888b8b9090",
"(. c #878790909b9b",
"). c #8f8f90909090",
"_. c #90908e8e9090",
"`. c #9d9d9d9d8f8f",
"'. c #935393539414",
"]. c #97979a9a9a9a",
"[. c #991997979999",
"{. c #9b019b349c02",
"}. c #9c9c9e1ea222",
"|. c #9999a0a0a9a9",
" X c #aeae9b9b8484",
".X c #a9a9a2a28989",
"XX c #a4b4a3b3a4e4",
"oX c #a8a8a7a7a9a9",
"OX c #ac56abe4acac",
"+X c #b3b3b2b2a8a8",
"@X c #b3cdb399b467",
"#X c #b6b6b7b7b9b9",
"$X c #b7b7b8b8b7b7",
"%X c #b8b8b6b6b8b8",
"&X c #bc4ebbe0bc4e",
"*X c #82828484c4c4",
"=X c #d1d1a9a98484",
"-X c #d7d7baba9595",
";X c #c444c444c46e",
":X c #cbedcc99cc43",
">X c #d0d0cdcdc7c7",
",X c #d2d2d353d2d2",
"<X c #d7d7d7d7d8d8",
"1X c #dc2adca1dc2a",
"2X c #e3bee3bee3e3",
"3X c #ecacecacecac",
"4X c #f482f482f482",
"5X c #fefefefefefe",
"6X c None",
/* pixels */
"6X6X6X6X6X6X6X6X6X6X6X6X6X6X6X6X6X6X6X6X6X6X6XXX6X6X6X6X6X6X6X6X",
"6X6X6X6X6X6X6X6X6X6X6X6X6X6X6X6X6X6X6X6X6X6X6X.X~ 6X6X6X6X6X6X6X",
"6X6X6X6X6X6X6X6X6X6X6X6X6X6X6X6X6X6X6X6X6X6X6XS.s.g.8 6X6X6X6X6X",
"6X6X6X6X6X6X6X6X6X6X6X6X6X6X6X6X6X6X6X6X6X6X6X6XG.C.[ ~ 6X6X6X6X",
"6X6X6X6X6X~ ] ' 6X6X6X6X6X6X8 Q ~ r v.W.~ 6X6X6X6X6XU.e.] ~ 6X6X",
"6X6X6X6X~ R s.x.6X6X6X~   @ x l @ l L D C   6X6X6X6XD.p.w.r 6X6X",
"6X6X6X6X!.P N.Y.6X6X~ A t.y.n.a.. _ R.Y.9.,   6X6X6X;.W m.  6X6X",
"6X6X6X6XX.z.-X6X6X~ 8 u.Y.Y.Y.Y.k.l.Y.Y.Y.i.+   6X~ 8 j.8.  6X6X",
"6X6X8 j 0.7.6X6XQ t ..U.I. .w P.M.V.m.m.7 K k y U ~ d.=X    6X6X",
"6X6X% q. X@ 6XXXt t.U.Y.m.5 &XOXo p +.%   8 +.!   1 O.b   6X6X6X",
"6X6X  m.A.a 4.;.f.J.F.K.Z #.#.I XX<X5X%X~.=.@X:X[.{.~.I w #.,X6X",
"6X6X  m.I.G u Z.h.F H.` ) U E.1X4X1X1X).oX+.+.XXXX+.;X2X1X].p 6X",
"6X6X  % B.L.G q d r.V [.U ( w 5 =.,X$X@XOX&X-.o XX,X%X5 . * 6X6X",
"6X6X6X5 < b.T.Y.t.W 3.}.B 2.r E.OXoX=.OX,X:X,X+.I ,X6X6X6X6X6X6X",
"6X6X6X~ . = H 9.=.#X:X8 `.9 1.} :.*XU +.,X&X:X|.@ ,X6X6X6X6X6X6X",
"6X6X6X6X    X +X4X5X;.^ 2X=.>.,.<.^.w 8 :X$X:X-.  6X6X6X6X6X6X6X",
"6X6X6X6X8 #.2X,X% . y 1X% '.5X@.i *.,X:X:X&X;X&X7 E.6X6X6X6X6X6X",
"6X6X6X6X#.;.XX@.  w @.oX~.XX4X%X@.{ 1X@X:X$X:X2X2   6X6X6X6X6X6X",
"6X6X6X6X,XXX;X=.Q &.#X~.E.! '.,XE.;X4X1X%X$X$X:X=.  6X6X6X6X6X6X",
"6X6X6X6X6X,XI % ;Xe / #.=.'.E.:X1X5X5X5XOX&X&X@X:X#.  6X6X6X6X6X",
"6X6X6X6X6X6X  7 4XXX% @ 4X'.'.3X;.:X3X1X1X1X;X4X;.e # 6X6X6X6X6X",
"6X6X6X6X6X6X  N 1X,X~.+.~.[.~ [.~.#.2.T T Q '.{.O : 0 ~ 6X6X6X6X",
"6X6X6X6X6X6X  8 ,X1X=.XXI ;.+._.+./.Y n 5.c >   3 : z ~ 6X6X6X6X",
"6X6X6X6X6X6X  . ~.4X+.I @XQ oXr ) 6 # f M k m X 6.  @ ~ 6X6X6X6X",
"6X6X6X6X6X6X6XI 8 ,X4XI r @.o.>X% E.w   h g v J 4 o 5 6X6X6X6X6X",
"6X6X6X6X6X6X6XXX1 E.2X@X~ ! ~ Q.w o o   $ > s c @ o @ 6X6X6X6X6X",
"6X6X6X6X6X6X6X6X| U ,X2X3XE.oX;.I +.Q . - S c c o w 8 6X6X6X6X6X",
"6X6X6X6X6X6X6X6X'.~ r [.2X,X#.:X% @X~   . - j ; . ~ 6X6X6X6X6X6X",
"6X6X6X6X6X6X6X6X6XXXE o ~.$X&X3X@.    6X~ r     ~ 6X6X6X6X6X6X6X",
"6X6X6X6X6X6X6X6X6X6XXX5 9 y '.$Xo %   6X6X6X6X6X6X6X6X6X6X6X6X6X",
"6X6X6X6X6X6X6X6X6X6X6X6X%.U $.E.+.~ 6X6X6X6X6X6X6X6X6X6X6X6X6X6X",
"6X6X6X6X6X6X6X6X6X6X6X6X6XXX(.}.XX6X6X6X6X6X6X6X6X6X6X6X6X6X6X6X"
};
