/* XPM */
static char * keylock_xpm[] = {
"48 24 46 1",
" 	c None",
".	c None",
"+	c #000000",
"@	c #FFE7A8",
"#	c #F7CA7C",
"$	c #D5A951",
"%	c #B58A32",
"&	c #9C721F",
"*	c #875E12",
"=	c #7D560E",
"-	c #DFDFDF",
";	c #DDDDDD",
">	c #D1D1D1",
",	c #B3B3B3",
"'	c #454545",
")	c #9A9A9A",
"!	c #BEBEBE",
"~	c #E7E7E7",
"{	c #B8B8B8",
"]	c #6B6B6B",
"^	c #656565",
"/	c #E5E5E5",
"(	c #C8C8C8",
"_	c #AEAEAE",
":	c #A7A7A7",
"<	c #808080",
"[	c #7B7B7B",
"}	c #939393",
"|	c #8C8C8C",
"1	c #7F7F7F",
"2	c #606060",
"3	c #A3A3A3",
"4	c #868686",
"5	c #787878",
"6	c #5B5B5B",
"7	c #B1B1B1",
"8	c #727272",
"9	c #555555",
"0	c #A8A8A8",
"a	c #505050",
"b	c #B6B6B6",
"c	c #646464",
"d	c #4A4A4A",
"e	c #9E9E9E",
"f	c #757575",
"g	c #707070",
"................................................",
"................................................",
"................................................",
"................................................",
"..........++++++................................",
".........+@#$%&*+...............................",
"........+@#++++=*+..............................",
"........+#+....+++.......................++.....",
"........+$+.............................+..+....",
"........+%++++++++..........+++++++++++++..+....",
".......++&+-;>,')'+.........+!!!!!!!!!!++..+....",
"......+~+*+!{,)']'^+........+!!!!!!!!!!++..+....",
"......+/(+_:<[}|'12+........+++++++++++++..+....",
".....++++_:<++34156+........++++++......+..+....",
".....+###+++++71589+........++++++.......++.....",
".....+#==$$%&=+08]a+........++..++..............",
".....+#$$++++++b]cd+........++..++..............",
".....++++}|e++b]cd'+............................",
".......+fg]^1[9ad'+.............................",
"........++++++++++..............................",
"................................................",
"................................................",
"................................................",
"................................................"};
